<?xml version="1.0" encoding="UTF-8" standalone="no"?>
<!-- Created with Inkscape (http://www.inkscape.org/) -->
<svg xmlns:dc="http://purl.org/dc/elements/1.1/" xmlns:cc="http://web.resource.org/cc/" xmlns:rdf="http://www.w3.org/1999/02/22-rdf-syntax-ns#" xmlns:svg="http://www.w3.org/2000/svg" xmlns="http://www.w3.org/2000/svg" xmlns:sodipodi="http://sodipodi.sourceforge.net/DTD/sodipodi-0.dtd" xmlns:inkscape="http://www.inkscape.org/namespaces/inkscape" width="540" height="388.69" id="svg2" sodipodi:version="0.32" inkscape:version="0.44.1" version="1.0" sodipodi:docbase="/home/conrad/Desktop" sodipodi:docname="PascalSimetria.svg">
  <defs id="defs4"/>
  <sodipodi:namedview id="base" pagecolor="#ffffff" bordercolor="#666666" borderopacity="1.0" inkscape:pageopacity="0.0" inkscape:pageshadow="2" inkscape:zoom="0.98849983" inkscape:cx="526.43201" inkscape:cy="134.586" inkscape:document-units="px" inkscape:current-layer="g2477" width="880px" height="388.69px" inkscape:window-width="1680" inkscape:window-height="1018" inkscape:window-x="0" inkscape:window-y="6"/>
  <metadata id="metadata7">
    <rdf:RDF>
      <cc:Work rdf:about="">
        <dc:format>image/svg+xml</dc:format>
        <dc:type rdf:resource="http://purl.org/dc/dcmitype/StillImage"/>
      </cc:Work>
    </rdf:RDF>
  </metadata>
  <g inkscape:label="Capa 1" inkscape:groupmode="layer" id="layer1" transform="translate(-8.891183,-30.9431)">
    <g id="g2477" transform="translate(8.965098,7.953464)">
      <path id="text2160" d="M 273.29855,69.790752 L 249.60324,69.790752 L 249.60324,67.294659 C 250.30636,67.247786 251.40206,67.148177 252.89035,66.995831 C 254.37862,66.84349 255.40401,66.685287 255.96652,66.521221 C 256.69307,66.28685 257.24971,65.905991 257.63644,65.378643 C 258.02315,64.851304 258.21651,64.060289 258.21652,63.005596 L 258.21652,38.325909 L 249.46262,38.325909 L 249.46262,35.372784 L 251.39621,35.372784 C 253.92745,35.372818 256.19503,34.904069 258.19894,33.966534 C 260.20283,33.02907 261.63838,32.021259 262.50558,30.943096 L 265.42355,30.943096 C 265.35322,32.466571 265.28291,34.247819 265.21262,36.286846 C 265.14228,38.32594 265.10713,40.154063 265.10715,41.771221 L 265.10715,62.618877 C 265.10713,63.439196 265.28877,64.171617 265.65207,64.816143 C 266.01533,65.460679 266.53681,65.935288 267.21652,66.239971 C 267.82587,66.497787 268.82197,66.732162 270.2048,66.943096 C 271.58759,67.154036 272.61884,67.271224 273.29855,67.294659 L 273.29855,69.790752 z " style="font-size:72px;font-style:normal;font-variant:normal;font-weight:normal;font-stretch:normal;text-align:start;line-height:125%;writing-mode:lr-tb;text-anchor:start;fill:black;fill-opacity:1;stroke:none;stroke-width:1px;stroke-linecap:butt;stroke-linejoin:miter;stroke-opacity:1;font-family:Georgia"/>
      <path id="text2164" d="M 224.44141,130.93361 L 200.74609,130.93361 L 200.74609,128.43752 C 201.44921,128.39064 202.54492,128.29103 204.0332,128.13869 C 205.52147,127.98635 206.54686,127.82814 207.10938,127.66408 C 207.83593,127.42971 208.39257,127.04885 208.7793,126.5215 C 209.166,125.99416 209.35936,125.20315 209.35938,124.14845 L 209.35938,99.468765 L 200.60547,99.468765 L 200.60547,96.51564 L 202.53906,96.51564 C 205.0703,96.515675 207.33788,96.046925 209.3418,95.10939 C 211.34569,94.171927 212.78123,93.164116 213.64844,92.085953 L 216.56641,92.085953 C 216.49607,93.609428 216.42576,95.390676 216.35547,97.429703 C 216.28514,99.468797 216.24998,101.29692 216.25,102.91408 L 216.25,123.76173 C 216.24998,124.58205 216.43162,125.31447 216.79492,125.959 C 217.15818,126.60354 217.67967,127.07814 218.35938,127.38283 C 218.96873,127.64064 219.96482,127.87502 221.34766,128.08595 C 222.73044,128.29689 223.76169,128.41408 224.44141,128.43752 L 224.44141,130.93361 z " style="font-size:72px;font-style:normal;font-variant:normal;font-weight:normal;font-stretch:normal;text-align:start;line-height:125%;writing-mode:lr-tb;text-anchor:start;fill:black;fill-opacity:1;stroke:none;stroke-width:1px;stroke-linecap:butt;stroke-linejoin:miter;stroke-opacity:1;font-family:Georgia"/>
      <path id="text2168" d="M 327.29855,130.93361 L 303.60324,130.93361 L 303.60324,128.43752 C 304.30636,128.39064 305.40206,128.29103 306.89035,128.13869 C 308.37862,127.98635 309.40401,127.82814 309.96652,127.66408 C 310.69307,127.42971 311.24971,127.04885 311.63644,126.5215 C 312.02315,125.99416 312.21651,125.20315 312.21652,124.14845 L 312.21652,99.468765 L 303.46262,99.468765 L 303.46262,96.51564 L 305.39621,96.51564 C 307.92745,96.515675 310.19503,96.046925 312.19894,95.10939 C 314.20283,94.171927 315.63838,93.164116 316.50558,92.085953 L 319.42355,92.085953 C 319.35322,93.609428 319.28291,95.390676 319.21262,97.429703 C 319.14228,99.468797 319.10713,101.29692 319.10715,102.91408 L 319.10715,123.76173 C 319.10713,124.58205 319.28877,125.31447 319.65207,125.959 C 320.01533,126.60354 320.53681,127.07814 321.21652,127.38283 C 321.82587,127.64064 322.82197,127.87502 324.2048,128.08595 C 325.58759,128.29689 326.61884,128.41408 327.29855,128.43752 L 327.29855,130.93361 z " style="font-size:72px;font-style:normal;font-variant:normal;font-weight:normal;font-stretch:normal;text-align:start;line-height:125%;writing-mode:lr-tb;text-anchor:start;fill:black;fill-opacity:1;stroke:none;stroke-width:1px;stroke-linecap:butt;stroke-linejoin:miter;stroke-opacity:1;font-family:Georgia"/>
      <path id="text2172" d="M 179.29855,192.21933 L 155.60324,192.21933 L 155.60324,189.72324 C 156.30636,189.67636 157.40206,189.57675 158.89035,189.42441 C 160.37862,189.27207 161.40401,189.11386 161.96652,188.9498 C 162.69307,188.71543 163.24971,188.33457 163.63644,187.80722 C 164.02315,187.27988 164.21651,186.48887 164.21652,185.43417 L 164.21652,160.75449 L 155.46262,160.75449 L 155.46262,157.80136 L 157.39621,157.80136 C 159.92745,157.8014 162.19503,157.33265 164.19894,156.39511 C 166.20283,155.45765 167.63838,154.44984 168.50558,153.37167 L 171.42355,153.37167 C 171.35322,154.89515 171.28291,156.6764 171.21262,158.71542 C 171.14228,160.75452 171.10713,162.58264 171.10715,164.1998 L 171.10715,185.04745 C 171.10713,185.86777 171.28877,186.60019 171.65207,187.24472 C 172.01533,187.88926 172.53681,188.36386 173.21652,188.66855 C 173.82587,188.92636 174.82197,189.16074 176.2048,189.37167 C 177.58759,189.58261 178.61884,189.6998 179.29855,189.72324 L 179.29855,192.21933 z " style="font-size:72px;font-style:normal;font-variant:normal;font-weight:normal;font-stretch:normal;text-align:start;line-height:125%;writing-mode:lr-tb;text-anchor:start;fill:black;fill-opacity:1;stroke:none;stroke-width:1px;stroke-linecap:butt;stroke-linejoin:miter;stroke-opacity:1;font-family:Georgia"/>
      <path id="text2176" d="M 281.75777,200.3124 L 247.80473,200.3124 L 247.80473,194.41057 C 248.45697,193.51374 249.36287,192.5084 250.52242,191.39456 C 251.68196,190.28075 253.05892,189.0729 254.65331,187.77101 C 255.6196,186.9899 256.77913,186.13645 258.13196,185.21066 C 259.48475,184.2849 261.01874,183.27234 262.73393,182.17296 C 264.64232,180.9579 266.10986,179.88747 267.13658,178.96166 C 268.16324,178.03592 269.09933,176.89315 269.94486,175.5334 C 270.50045,174.63658 270.94737,173.51553 271.28559,172.17022 C 271.62376,170.82498 271.79287,168.90834 271.79289,166.42028 C 271.79287,162.804 270.98361,160.14962 269.36509,158.45716 C 267.74652,156.76477 265.669,155.91853 263.13251,155.9185 C 261.56227,155.91853 260.07659,156.2874 258.6755,157.02509 C 257.27437,157.76286 256.22353,158.78266 255.52297,160.0845 C 255.69206,161.01031 255.90344,162.10966 256.15711,163.38258 C 256.41074,164.65555 256.53756,165.89957 256.53758,167.11461 C 256.53756,168.21401 256.15708,169.1904 255.39615,170.04384 C 254.63518,170.89731 253.50584,171.32404 252.0081,171.324 C 250.80022,171.32404 249.87017,170.82498 249.21792,169.82685 C 248.56568,168.82878 248.23955,167.49073 248.23956,165.81274 C 248.23955,164.25054 248.60191,162.68105 249.32662,161.10431 C 250.05134,159.52762 251.0901,158.07385 252.44291,156.74301 C 253.77156,155.44118 255.41425,154.38524 257.371,153.57512 C 259.32773,152.76512 261.44148,152.36009 263.71228,152.36004 C 268.66451,152.36009 272.59609,153.68366 275.50707,156.33076 C 278.41799,158.97795 279.87347,162.51469 279.8735,166.94103 C 279.87347,169.05299 279.61376,170.97687 279.09442,172.71266 C 278.575,174.44853 277.73554,175.98185 276.57602,177.31263 C 275.29567,178.78811 273.79791,180.05382 272.08279,181.10976 C 270.36759,182.16574 267.74652,183.63397 264.21959,185.51444 C 262.11789,186.64274 260.16116,187.82165 258.34938,189.05119 C 256.53756,190.28075 255.0519,191.47413 253.89236,192.63133 L 281.75777,192.63133 L 281.75777,200.3124 z " style="font-size:72px;font-style:normal;font-variant:normal;font-weight:normal;font-stretch:normal;text-align:start;line-height:125%;writing-mode:lr-tb;text-anchor:start;fill:black;fill-opacity:1;stroke:none;stroke-width:1px;stroke-linecap:butt;stroke-linejoin:miter;stroke-opacity:1;font-family:Georgia"/>
      <path id="text2180" d="M 376.44141,192.21933 L 352.74609,192.21933 L 352.74609,189.72324 C 353.44921,189.67636 354.54492,189.57675 356.0332,189.42441 C 357.52147,189.27207 358.54686,189.11386 359.10938,188.9498 C 359.83593,188.71543 360.39257,188.33457 360.7793,187.80722 C 361.166,187.27988 361.35936,186.48887 361.35938,185.43417 L 361.35938,160.75449 L 352.60547,160.75449 L 352.60547,157.80136 L 354.53906,157.80136 C 357.0703,157.8014 359.33788,157.33265 361.3418,156.39511 C 363.34569,155.45765 364.78123,154.44984 365.64844,153.37167 L 368.56641,153.37167 C 368.49607,154.89515 368.42576,156.6764 368.35547,158.71542 C 368.28514,160.75452 368.24998,162.58264 368.25,164.1998 L 368.25,185.04745 C 368.24998,185.86777 368.43162,186.60019 368.79492,187.24472 C 369.15818,187.88926 369.67967,188.36386 370.35938,188.66855 C 370.96873,188.92636 371.96482,189.16074 373.34766,189.37167 C 374.73044,189.58261 375.76169,189.6998 376.44141,189.72324 L 376.44141,192.21933 z " style="font-size:72px;font-style:normal;font-variant:normal;font-weight:normal;font-stretch:normal;text-align:start;line-height:125%;writing-mode:lr-tb;text-anchor:start;fill:black;fill-opacity:1;stroke:none;stroke-width:1px;stroke-linecap:butt;stroke-linejoin:miter;stroke-opacity:1;font-family:Georgia"/>
      <path id="text2184" d="M 133.86998,259.0639 L 110.17467,259.0639 L 110.17467,256.56781 C 110.87779,256.52094 111.97349,256.42133 113.46178,256.26898 C 114.95005,256.11664 115.97544,255.95844 116.53795,255.79437 C 117.2645,255.56 117.82114,255.17914 118.20787,254.65179 C 118.59458,254.12446 118.78794,253.33344 118.78795,252.27875 L 118.78795,227.59906 L 110.03404,227.59906 L 110.03404,224.64594 L 111.96764,224.64594 C 114.49888,224.64597 116.76645,224.17722 118.77037,223.23969 C 120.77426,222.30222 122.20981,221.29441 123.07701,220.21625 L 125.99498,220.21625 C 125.92465,221.73972 125.85433,223.52097 125.78404,225.56 C 125.71371,227.59909 125.67855,229.42721 125.67857,231.04437 L 125.67857,251.89203 C 125.67855,252.71235 125.86019,253.44477 126.2235,254.08929 C 126.58676,254.73383 127.10824,255.20844 127.78795,255.51312 C 128.3973,255.77094 129.39339,256.00531 130.77623,256.21625 C 132.15902,256.42719 133.19026,256.54438 133.86998,256.56781 L 133.86998,259.0639 z " style="font-size:72px;font-style:normal;font-variant:normal;font-weight:normal;font-stretch:normal;text-align:start;line-height:125%;writing-mode:lr-tb;text-anchor:start;fill:black;fill-opacity:1;stroke:none;stroke-width:1px;stroke-linecap:butt;stroke-linejoin:miter;stroke-opacity:1;font-family:Georgia"/>
      <path id="text2188" d="M 209.41675,265.47992 C 207.21361,265.47991 205.19799,265.20452 203.36987,264.65375 C 201.54174,264.10295 199.97143,263.35881 198.65894,262.42133 C 197.34643,261.48382 196.33276,260.40569 195.61792,259.18695 C 194.90307,257.9682 194.54565,256.71429 194.54565,255.42523 C 194.54565,254.27679 194.8269,253.23968 195.3894,252.3139 C 195.9519,251.38812 196.85424,250.92523 198.09644,250.92523 C 199.50268,250.92523 200.57494,251.27094 201.31323,251.96234 C 202.0515,252.65375 202.42064,253.44476 202.42065,254.33539 C 202.42064,255.08539 202.2976,256.0346 202.05151,257.18304 C 201.80541,258.33148 201.61205,259.15179 201.47144,259.64398 C 201.63549,259.85491 201.93432,260.13616 202.36792,260.48773 C 202.8015,260.83929 203.33471,261.15569 203.96753,261.43695 C 204.71752,261.7885 205.50267,262.06975 206.323,262.2807 C 207.1433,262.49163 208.30345,262.5971 209.80347,262.59711 C 211.2097,262.5971 212.56321,262.36272 213.86401,261.89398 C 215.16477,261.42522 216.30735,260.67522 217.29175,259.64398 C 218.32297,258.56585 219.12571,257.30609 219.69995,255.86469 C 220.27414,254.42328 220.56125,252.5307 220.56128,250.18695 C 220.56125,248.92133 220.42649,247.66742 220.15698,246.42523 C 219.88742,245.18305 219.38938,244.10493 218.66284,243.19086 C 217.93625,242.2768 216.94602,241.56782 215.69214,241.0639 C 214.43821,240.56001 212.85032,240.30806 210.92847,240.30804 L 206.323,240.30804 L 206.323,236.26508 L 209.38159,236.26508 C 212.61595,236.26509 214.94798,235.37447 216.37769,233.5932 C 217.80735,231.81197 218.52219,229.12838 218.52222,225.54242 C 218.52219,222.61276 217.83079,220.40378 216.448,218.91547 C 215.06516,217.42722 213.10813,216.68308 210.5769,216.68304 C 209.35814,216.68308 208.35619,216.82956 207.57104,217.1225 C 206.78587,217.4155 206.1472,217.70261 205.65503,217.98383 C 205.06908,218.31199 204.58861,218.67527 204.21362,219.07367 C 203.83861,219.47214 203.55736,219.76511 203.36987,219.95258 C 203.53392,220.70261 203.73314,221.62253 203.96753,222.71234 C 204.20189,223.80221 204.31908,224.83932 204.31909,225.82367 C 204.31908,226.69088 203.94994,227.47018 203.21167,228.16156 C 202.47338,228.85299 201.3894,229.19869 199.95972,229.19867 C 198.71752,229.19869 197.80932,228.75338 197.23511,227.86273 C 196.66088,226.97213 196.37378,225.94088 196.37378,224.76898 C 196.37378,223.55026 196.71362,222.30807 197.39331,221.04242 C 198.07299,219.77683 199.0808,218.59323 200.41675,217.49164 C 201.75268,216.39011 203.38158,215.49949 205.30347,214.81976 C 207.22533,214.14011 209.44017,213.80027 211.948,213.80023 C 214.83079,213.80027 217.21555,214.228 219.10229,215.08344 C 220.98898,215.93894 222.47141,216.97605 223.54956,218.19476 C 224.60422,219.39011 225.33078,220.64401 225.72925,221.95648 C 226.12765,223.26901 226.32687,224.39401 226.3269,225.33148 C 226.32687,226.50338 226.16281,227.68112 225.83472,228.86469 C 225.50656,230.0483 224.9675,231.144 224.21753,232.15179 C 223.39719,233.25338 222.3132,234.25533 220.96558,235.15765 C 219.61789,236.06001 217.92453,236.79244 215.8855,237.35492 L 215.8855,237.91742 C 217.19797,238.03462 218.59836,238.32759 220.08667,238.79633 C 221.57492,239.26509 222.91672,239.95649 224.11206,240.87054 C 225.35421,241.83149 226.37375,243.06782 227.17065,244.57953 C 227.96749,246.09125 228.36593,248.00727 228.36597,250.32758 C 228.36593,254.82757 226.56125,258.47796 222.9519,261.27875 C 219.3425,264.07952 214.83079,265.47991 209.41675,265.47992 L 209.41675,265.47992 z " style="font-size:72px;font-style:normal;font-variant:normal;font-weight:normal;font-stretch:normal;text-align:start;line-height:125%;writing-mode:lr-tb;text-anchor:start;fill:black;fill-opacity:1;stroke:none;stroke-width:1px;stroke-linecap:butt;stroke-linejoin:miter;stroke-opacity:1;font-family:Georgia"/>
      <path id="text2192" d="M 307.46313,265.47992 C 305.25999,265.47991 303.24437,265.20452 301.41626,264.65375 C 299.58813,264.10295 298.01781,263.35881 296.70532,262.42133 C 295.39282,261.48382 294.37915,260.40569 293.66431,259.18695 C 292.94946,257.9682 292.59204,256.71429 292.59204,255.42523 C 292.59204,254.27679 292.87329,253.23968 293.43579,252.3139 C 293.99829,251.38812 294.90063,250.92523 296.14282,250.92523 C 297.54907,250.92523 298.62133,251.27094 299.35962,251.96234 C 300.09789,252.65375 300.46703,253.44476 300.46704,254.33539 C 300.46703,255.08539 300.34398,256.0346 300.0979,257.18304 C 299.8518,258.33148 299.65844,259.15179 299.51782,259.64398 C 299.68188,259.85491 299.9807,260.13616 300.41431,260.48773 C 300.84789,260.83929 301.38109,261.15569 302.01392,261.43695 C 302.7639,261.7885 303.54906,262.06975 304.36938,262.2807 C 305.18968,262.49163 306.34984,262.5971 307.84985,262.59711 C 309.25608,262.5971 310.6096,262.36272 311.9104,261.89398 C 313.21116,261.42522 314.35374,260.67522 315.33813,259.64398 C 316.36936,258.56585 317.17209,257.30609 317.74634,255.86469 C 318.32053,254.42328 318.60764,252.5307 318.60767,250.18695 C 318.60764,248.92133 318.47287,247.66742 318.20337,246.42523 C 317.93381,245.18305 317.43576,244.10493 316.70923,243.19086 C 315.98264,242.2768 314.99241,241.56782 313.73853,241.0639 C 312.4846,240.56001 310.89671,240.30806 308.97485,240.30804 L 304.36938,240.30804 L 304.36938,236.26508 L 307.42798,236.26508 C 310.66233,236.26509 312.99436,235.37447 314.42407,233.5932 C 315.85373,231.81197 316.56858,229.12838 316.5686,225.54242 C 316.56858,222.61276 315.87717,220.40378 314.49438,218.91547 C 313.11155,217.42722 311.15452,216.68308 308.62329,216.68304 C 307.40452,216.68308 306.40257,216.82956 305.61743,217.1225 C 304.83226,217.4155 304.19359,217.70261 303.70142,217.98383 C 303.11547,218.31199 302.635,218.67527 302.26001,219.07367 C 301.885,219.47214 301.60375,219.76511 301.41626,219.95258 C 301.58031,220.70261 301.77953,221.62253 302.01392,222.71234 C 302.24828,223.80221 302.36547,224.83932 302.36548,225.82367 C 302.36547,226.69088 301.99633,227.47018 301.25806,228.16156 C 300.51977,228.85299 299.43578,229.19869 298.0061,229.19867 C 296.76391,229.19869 295.85571,228.75338 295.28149,227.86273 C 294.70727,226.97213 294.42016,225.94088 294.42017,224.76898 C 294.42016,223.55026 294.76001,222.30807 295.4397,221.04242 C 296.11938,219.77683 297.12719,218.59323 298.46313,217.49164 C 299.79906,216.39011 301.42797,215.49949 303.34985,214.81976 C 305.27171,214.14011 307.48656,213.80027 309.99438,213.80023 C 312.87717,213.80027 315.26194,214.228 317.14868,215.08344 C 319.03537,215.93894 320.51779,216.97605 321.59595,218.19476 C 322.6506,219.39011 323.37716,220.64401 323.77563,221.95648 C 324.17404,223.26901 324.37326,224.39401 324.37329,225.33148 C 324.37326,226.50338 324.20919,227.68112 323.8811,228.86469 C 323.55295,230.0483 323.01388,231.144 322.26392,232.15179 C 321.44357,233.25338 320.35959,234.25533 319.01196,235.15765 C 317.66428,236.06001 315.97092,236.79244 313.93188,237.35492 L 313.93188,237.91742 C 315.24436,238.03462 316.64475,238.32759 318.13306,238.79633 C 319.62131,239.26509 320.9631,239.95649 322.15845,240.87054 C 323.4006,241.83149 324.42013,243.06782 325.21704,244.57953 C 326.01388,246.09125 326.41232,248.00727 326.41235,250.32758 C 326.41232,254.82757 324.60763,258.47796 320.99829,261.27875 C 317.38889,264.07952 312.87717,265.47991 307.46313,265.47992 L 307.46313,265.47992 z " style="font-size:72px;font-style:normal;font-variant:normal;font-weight:normal;font-stretch:normal;text-align:start;line-height:125%;writing-mode:lr-tb;text-anchor:start;fill:black;fill-opacity:1;stroke:none;stroke-width:1px;stroke-linecap:butt;stroke-linejoin:miter;stroke-opacity:1;font-family:Georgia"/>
      <path id="text2196" d="M 419.58426,259.0639 L 395.88895,259.0639 L 395.88895,256.56781 C 396.59207,256.52094 397.68777,256.42133 399.17606,256.26898 C 400.66433,256.11664 401.68972,255.95844 402.25223,255.79437 C 402.97878,255.56 403.53542,255.17914 403.92215,254.65179 C 404.30886,254.12446 404.50221,253.33344 404.50223,252.27875 L 404.50223,227.59906 L 395.74832,227.59906 L 395.74832,224.64594 L 397.68192,224.64594 C 400.21316,224.64597 402.48073,224.17722 404.48465,223.23969 C 406.48854,222.30222 407.92409,221.29441 408.79129,220.21625 L 411.70926,220.21625 C 411.63893,221.73972 411.56861,223.52097 411.49832,225.56 C 411.42799,227.59909 411.39283,229.42721 411.39285,231.04437 L 411.39285,251.89203 C 411.39283,252.71235 411.57447,253.44477 411.93777,254.08929 C 412.30103,254.73383 412.82252,255.20844 413.50223,255.51312 C 414.11158,255.77094 415.10767,256.00531 416.49051,256.21625 C 417.87329,256.42719 418.90454,256.54438 419.58426,256.56781 L 419.58426,259.0639 z " style="font-size:72px;font-style:normal;font-variant:normal;font-weight:normal;font-stretch:normal;text-align:start;line-height:125%;writing-mode:lr-tb;text-anchor:start;color:black;fill:black;fill-opacity:1;fill-rule:nonzero;stroke:none;stroke-width:1px;stroke-linecap:butt;stroke-linejoin:miter;marker:none;marker-start:none;marker-mid:none;marker-end:none;stroke-miterlimit:4;stroke-dashoffset:0;stroke-opacity:1;visibility:visible;display:inline;overflow:visible;font-family:Georgia"/>
      <path id="text2200" d="M 80.441406,326.49249 L 56.746094,326.49249 L 56.746094,323.9964 C 57.449213,323.94953 58.544915,323.84992 60.033203,323.69757 C 61.521475,323.54523 62.546864,323.38703 63.109375,323.22296 C 63.835926,322.98859 64.392566,322.60773 64.779297,322.08038 C 65.166002,321.55304 65.359362,320.76203 65.359375,319.70734 L 65.359375,295.02765 L 56.605469,295.02765 L 56.605469,292.07452 L 58.539063,292.07452 C 61.070303,292.07456 63.337879,291.60581 65.341797,290.66827 C 67.345688,289.73081 68.781233,288.723 69.648438,287.64484 L 72.566406,287.64484 C 72.496073,289.16831 72.425761,290.94956 72.355469,292.98859 C 72.285136,295.02768 72.24998,296.8558 72.25,298.47296 L 72.25,319.32062 C 72.24998,320.14094 72.43162,320.87336 72.794922,321.51788 C 73.158182,322.16242 73.679666,322.63703 74.359375,322.94171 C 74.968727,323.19953 75.96482,323.4339 77.347656,323.64484 C 78.730442,323.85578 79.761691,323.97296 80.441406,323.9964 L 80.441406,326.49249 z " style="font-size:72px;font-style:normal;font-variant:normal;font-weight:normal;font-stretch:normal;text-align:start;line-height:125%;writing-mode:lr-tb;text-anchor:start;fill:black;fill-opacity:1;stroke:none;stroke-width:1px;stroke-linecap:butt;stroke-linejoin:miter;stroke-opacity:1;font-family:Georgia"/>
      <path id="text2204" d="M 172.48637,316.80695 L 165.34966,316.80695 L 165.34966,332.80304 L 158.59966,332.80304 L 158.59966,316.80695 L 136.09966,316.80695 L 136.09966,311.39288 L 160.74419,281.33429 L 165.34966,281.33429 L 165.34966,312.20148 L 172.48637,312.20148 L 172.48637,316.80695 z M 158.59966,312.20148 L 158.59966,289.17413 L 139.61528,312.20148 L 158.59966,312.20148 z " style="font-size:72px;font-style:normal;font-variant:normal;font-weight:normal;font-stretch:normal;text-align:start;line-height:125%;writing-mode:lr-tb;text-anchor:start;fill:black;fill-opacity:1;stroke:none;stroke-width:1px;stroke-linecap:butt;stroke-linejoin:miter;stroke-opacity:1;font-family:Georgia"/>
      <path id="text2208" d="M 272.56863,315.85773 C 272.5686,318.29524 272.12914,320.58039 271.25027,322.7132 C 270.37133,324.84602 269.1936,326.66242 267.71707,328.16241 C 266.0061,329.87335 264.11353,331.13898 262.03934,331.95929 C 259.96509,332.7796 257.80299,333.18976 255.55301,333.18976 C 252.95143,333.18976 250.59596,332.70929 248.4866,331.74835 C 246.37722,330.78742 244.58425,329.42804 243.1077,327.67023 C 241.60769,325.88898 240.44753,323.7093 239.62723,321.13116 C 238.80691,318.55305 238.39676,315.65852 238.39676,312.44757 C 238.39676,304.08041 240.88699,297.02573 245.86746,291.28351 C 250.84791,285.54137 257.52174,282.09606 265.88895,280.94757 L 266.52176,284.11163 L 263.3577,284.67413 C 258.27174,286.3148 254.3401,288.86949 251.56277,292.3382 C 248.78542,295.80698 246.98659,300.01401 246.16629,304.95929 C 248.1819,303.20151 250.17409,301.95932 252.14285,301.23273 C 254.11158,300.5062 256.1858,300.14292 258.36551,300.14288 C 262.27954,300.14292 265.62524,301.64291 268.40262,304.64288 C 271.17993,307.64291 272.5686,311.38119 272.56863,315.85773 L 272.56863,315.85773 z M 264.93973,316.80695 C 264.9397,313.01009 264.06665,309.96322 262.32059,307.66632 C 260.57447,305.36947 258.23658,304.22104 255.30692,304.22101 C 253.54908,304.22104 251.91432,304.54916 250.40262,305.20538 C 248.89089,305.86166 247.4319,306.96322 246.02567,308.51007 C 246.00222,308.79134 245.96706,309.44173 245.9202,310.46124 C 245.87331,311.48079 245.84987,312.28353 245.84988,312.86945 C 245.84987,318.35383 246.74636,322.64875 248.53934,325.75421 C 250.33229,328.85968 252.69362,330.41242 255.62332,330.41241 C 258.41236,330.41242 260.66236,329.19953 262.37332,326.77374 C 264.08423,324.34797 264.9397,321.02571 264.93973,316.80695 L 264.93973,316.80695 z " style="font-size:72px;font-style:normal;font-variant:normal;font-weight:normal;font-stretch:normal;text-align:start;line-height:125%;writing-mode:lr-tb;text-anchor:start;fill:black;fill-opacity:1;stroke:none;stroke-width:1px;stroke-linecap:butt;stroke-linejoin:miter;stroke-opacity:1;font-family:Georgia"/>
      <path id="text2212" d="M 385.83633,316.80695 L 378.69962,316.80695 L 378.69962,332.80304 L 371.94962,332.80304 L 371.94962,316.80695 L 349.44962,316.80695 L 349.44962,311.39288 L 374.09415,281.33429 L 378.69962,281.33429 L 378.69962,312.20148 L 385.83633,312.20148 L 385.83633,316.80695 z M 371.94962,312.20148 L 371.94962,289.17413 L 352.96524,312.20148 L 371.94962,312.20148 z " style="font-size:72px;font-style:normal;font-variant:normal;font-weight:normal;font-stretch:normal;text-align:start;line-height:125%;writing-mode:lr-tb;text-anchor:start;fill:black;fill-opacity:1;stroke:none;stroke-width:1px;stroke-linecap:butt;stroke-linejoin:miter;stroke-opacity:1;font-family:Georgia"/>
      <path id="text2216" d="M 483.29855,326.49249 L 459.60324,326.49249 L 459.60324,323.9964 C 460.30636,323.94953 461.40206,323.84992 462.89035,323.69757 C 464.37862,323.54523 465.40401,323.38703 465.96652,323.22296 C 466.69307,322.98859 467.24971,322.60773 467.63644,322.08038 C 468.02315,321.55304 468.21651,320.76203 468.21652,319.70734 L 468.21652,295.02765 L 459.46262,295.02765 L 459.46262,292.07452 L 461.39621,292.07452 C 463.92745,292.07456 466.19503,291.60581 468.19894,290.66827 C 470.20283,289.73081 471.63838,288.723 472.50558,287.64484 L 475.42355,287.64484 C 475.35322,289.16831 475.28291,290.94956 475.21262,292.98859 C 475.14228,295.02768 475.10713,296.8558 475.10715,298.47296 L 475.10715,319.32062 C 475.10713,320.14094 475.28877,320.87336 475.65207,321.51788 C 476.01533,322.16242 476.53681,322.63703 477.21652,322.94171 C 477.82587,323.19953 478.82197,323.4339 480.2048,323.64484 C 481.58759,323.85578 482.61884,323.97296 483.29855,323.9964 L 483.29855,326.49249 z " style="font-size:72px;font-style:normal;font-variant:normal;font-weight:normal;font-stretch:normal;text-align:start;line-height:125%;writing-mode:lr-tb;text-anchor:start;fill:black;fill-opacity:1;stroke:none;stroke-width:1px;stroke-linecap:butt;stroke-linejoin:miter;stroke-opacity:1;font-family:Georgia"/>
      <path id="text2220" d="M 32.72712,395.7782 L 9.0318079,395.7782 L 9.0318079,393.2821 C 9.7349274,393.23523 10.83063,393.13562 12.318917,392.98328 C 13.807189,392.83094 14.832579,392.67273 15.395089,392.50867 C 16.12164,392.2743 16.67828,391.89344 17.065011,391.36609 C 17.451717,390.83875 17.645076,390.04774 17.645089,388.99304 L 17.645089,364.31335 L 8.8911829,364.31335 L 8.8911829,361.36023 L 10.824777,361.36023 C 13.356018,361.36026 15.623593,360.89151 17.627511,359.95398 C 19.631402,359.01652 21.066947,358.0087 21.934152,356.93054 L 24.85212,356.93054 C 24.781787,358.45402 24.711475,360.23527 24.641183,362.27429 C 24.57085,364.31339 24.535694,366.14151 24.535714,367.75867 L 24.535714,388.60632 C 24.535694,389.42664 24.717334,390.15906 25.080636,390.80359 C 25.443896,391.44812 25.96538,391.92273 26.645089,392.22742 C 27.254441,392.48523 28.250534,392.71961 29.63337,392.93054 C 31.016156,393.14148 32.047405,393.25867 32.72712,393.2821 L 32.72712,395.7782 z " style="font-size:72px;font-style:normal;font-variant:normal;font-weight:normal;font-stretch:normal;text-align:start;line-height:125%;writing-mode:lr-tb;text-anchor:start;fill:black;fill-opacity:1;stroke:none;stroke-width:1px;stroke-linecap:butt;stroke-linejoin:miter;stroke-opacity:1;font-family:Georgia"/>
      <path id="text2224" d="M 114.51233,372.3114 C 116.05917,373.53017 117.34237,375.10048 118.36194,377.02234 C 119.38144,378.94422 119.8912,381.34657 119.89124,384.22937 C 119.8912,389.26843 118.16855,393.42858 114.72327,396.70984 C 111.27793,399.99108 106.90684,401.6317 101.60998,401.63171 C 97.50841,401.6317 94.039664,400.65905 91.203735,398.71375 C 88.367794,396.76842 86.949827,394.50671 86.949829,391.92859 C 86.949827,390.73327 87.242795,389.69031 87.828735,388.79968 C 88.414669,387.90906 89.317012,387.46375 90.535767,387.46375 C 91.94201,387.46375 93.014274,387.83289 93.752563,388.57117 C 94.490835,389.30945 94.859975,390.11218 94.859985,390.97937 C 94.859975,391.72937 94.731069,392.66687 94.473267,393.79187 C 94.215445,394.91686 94.016226,395.74889 93.87561,396.28796 C 94.063101,396.45202 94.367788,396.67467 94.789673,396.95593 C 95.211538,397.23717 95.715443,397.50671 96.301392,397.76453 C 96.910755,398.02233 97.654894,398.25085 98.533813,398.45007 C 99.412705,398.64928 100.4381,398.74889 101.60998,398.7489 C 103.10997,398.74889 104.52793,398.4442 105.86389,397.83484 C 107.19981,397.22546 108.32481,396.32311 109.23889,395.12781 C 110.24668,393.8153 111.00254,392.32116 111.50647,390.64539 C 112.01035,388.9696 112.2623,386.84265 112.26233,384.26453 C 112.2623,380.95985 111.34238,378.22352 109.50256,376.05554 C 107.6627,373.88759 105.24278,372.8036 102.2428,372.80359 C 100.36778,372.8036 98.615831,373.15517 96.986938,373.85828 C 95.358022,374.56142 93.899039,375.73329 92.609985,377.3739 L 90.254517,376.45984 L 93.242798,351.07703 L 118.41467,351.07703 L 118.41467,357.33484 L 96.090454,357.33484 L 94.262329,372.24109 C 95.317006,371.49111 96.705677,370.74697 98.428345,370.00867 C 100.15099,369.27041 102.04356,368.90127 104.10608,368.90125 C 105.817,368.90127 107.59238,369.16494 109.43225,369.69226 C 111.27207,370.21962 112.96543,371.09267 114.51233,372.3114 L 114.51233,372.3114 z " style="font-size:72px;font-style:normal;font-variant:normal;font-weight:normal;font-stretch:normal;text-align:start;line-height:125%;writing-mode:lr-tb;text-anchor:start;fill:black;fill-opacity:1;stroke:none;stroke-width:1px;stroke-linecap:butt;stroke-linejoin:miter;stroke-opacity:1;font-family:Georgia"/>
      <path id="text2228" d="M 197.86667,395.2157 L 174.17136,395.2157 L 174.17136,392.7196 C 174.87448,392.67273 175.97018,392.57312 177.45847,392.42078 C 178.94674,392.26844 179.97213,392.11023 180.53464,391.94617 C 181.26119,391.7118 181.81783,391.33094 182.20456,390.80359 C 182.59126,390.27625 182.78462,389.48524 182.78464,388.43054 L 182.78464,363.75085 L 174.03073,363.75085 L 174.03073,360.79773 L 175.96432,360.79773 C 178.49557,360.79776 180.76314,360.32901 182.76706,359.39148 C 184.77095,358.45402 186.2065,357.4462 187.0737,356.36804 L 189.99167,356.36804 C 189.92134,357.89152 189.85102,359.67277 189.78073,361.71179 C 189.7104,363.75089 189.67524,365.57901 189.67526,367.19617 L 189.67526,388.04382 C 189.67524,388.86414 189.85688,389.59656 190.22018,390.24109 C 190.58344,390.88562 191.10493,391.36023 191.78464,391.66492 C 192.39399,391.92273 193.39008,392.15711 194.77292,392.36804 C 196.1557,392.57898 197.18695,392.69617 197.86667,392.7196 L 197.86667,395.2157 z M 236.46823,362.37976 C 237.96819,364.18448 239.08733,366.29971 239.82565,368.72546 C 240.56389,371.15127 240.93303,373.68838 240.93307,376.33679 C 240.93303,379.52431 240.476,382.37782 239.56198,384.89734 C 238.64788,387.41688 237.39398,389.50867 235.80026,391.17273 C 234.1596,392.88367 232.21429,394.17273 229.96432,395.03992 C 227.7143,395.9071 225.20649,396.3407 222.44089,396.3407 C 219.41743,396.3407 216.72212,395.83679 214.35495,394.82898 C 211.98775,393.82117 210.06588,392.43836 208.58932,390.68054 C 207.04244,388.85242 205.88815,386.71375 205.12643,384.26453 C 204.36471,381.81532 203.98385,379.17275 203.98386,376.33679 C 203.98385,373.54775 204.35299,370.98135 205.09128,368.63757 C 205.82955,366.29385 206.98385,364.17276 208.55417,362.27429 C 210.05416,360.4462 211.98775,359.0048 214.35495,357.95007 C 216.72212,356.89542 219.42915,356.36808 222.47604,356.36804 C 225.68696,356.36808 228.44086,356.90714 230.73776,357.98523 C 233.0346,359.06339 234.94476,360.52823 236.46823,362.37976 L 236.46823,362.37976 z M 233.16354,376.33679 C 233.16351,370.75869 232.20843,366.43448 230.29831,363.36414 C 228.38813,360.29386 225.79242,358.7587 222.5112,358.75867 C 219.18306,358.7587 216.55806,360.29386 214.6362,363.36414 C 212.71431,366.43448 211.75338,370.75869 211.75339,376.33679 C 211.75338,381.63368 212.6733,385.89344 214.51315,389.11609 C 216.35298,392.33875 218.99556,393.95007 222.44089,393.95007 C 225.88617,393.95007 228.53461,392.33875 230.3862,389.11609 C 232.23773,385.89344 233.16351,381.63368 233.16354,376.33679 L 233.16354,376.33679 z " style="font-size:72px;font-style:normal;font-variant:normal;font-weight:normal;font-stretch:normal;text-indent:0;text-align:start;text-decoration:none;line-height:125%;letter-spacing:normal;word-spacing:normal;text-transform:none;direction:ltr;block-progression:tb;writing-mode:lr-tb;text-anchor:start;color:black;fill:black;fill-opacity:1;fill-rule:nonzero;stroke:none;stroke-width:1px;stroke-linecap:butt;stroke-linejoin:miter;marker:none;marker-start:none;marker-mid:none;marker-end:none;stroke-miterlimit:4;stroke-dashoffset:0;stroke-opacity:1;visibility:visible;display:inline;overflow:visible;font-family:Georgia"/>
      <path id="text2232" d="M 318.68777,395.2157 L 294.99246,395.2157 L 294.99246,392.7196 C 295.69558,392.67273 296.79128,392.57312 298.27957,392.42078 C 299.76784,392.26844 300.79323,392.11023 301.35574,391.94617 C 302.08229,391.7118 302.63893,391.33094 303.02567,390.80359 C 303.41237,390.27625 303.60573,389.48524 303.60574,388.43054 L 303.60574,363.75085 L 294.85184,363.75085 L 294.85184,360.79773 L 296.78543,360.79773 C 299.31667,360.79776 301.58425,360.32901 303.58817,359.39148 C 305.59206,358.45402 307.0276,357.4462 307.89481,356.36804 L 310.81277,356.36804 C 310.74244,357.89152 310.67213,359.67277 310.60184,361.71179 C 310.5315,363.75089 310.49635,365.57901 310.49637,367.19617 L 310.49637,388.04382 C 310.49635,388.86414 310.67799,389.59656 311.04129,390.24109 C 311.40455,390.88562 311.92603,391.36023 312.60574,391.66492 C 313.2151,391.92273 314.21119,392.15711 315.59402,392.36804 C 316.97681,392.57898 318.00806,392.69617 318.68777,392.7196 L 318.68777,395.2157 z M 357.28934,362.37976 C 358.7893,364.18448 359.90844,366.29971 360.64676,368.72546 C 361.385,371.15127 361.75414,373.68838 361.75418,376.33679 C 361.75414,379.52431 361.29711,382.37782 360.38309,384.89734 C 359.46899,387.41688 358.21508,389.50867 356.62137,391.17273 C 354.98071,392.88367 353.0354,394.17273 350.78543,395.03992 C 348.5354,395.9071 346.02759,396.3407 343.26199,396.3407 C 340.23854,396.3407 337.54323,395.83679 335.17606,394.82898 C 332.80886,393.82117 330.88698,392.43836 329.41043,390.68054 C 327.86355,388.85242 326.70925,386.71375 325.94754,384.26453 C 325.18582,381.81532 324.80496,379.17275 324.80496,376.33679 C 324.80496,373.54775 325.1741,370.98135 325.91238,368.63757 C 326.65066,366.29385 327.80496,364.17276 329.37527,362.27429 C 330.87526,360.4462 332.80886,359.0048 335.17606,357.95007 C 337.54323,356.89542 340.25026,356.36808 343.29715,356.36804 C 346.50806,356.36808 349.26197,356.90714 351.55887,357.98523 C 353.85571,359.06339 355.76587,360.52823 357.28934,362.37976 L 357.28934,362.37976 z M 353.98465,376.33679 C 353.98462,370.75869 353.02954,366.43448 351.11942,363.36414 C 349.20923,360.29386 346.61353,358.7587 343.33231,358.75867 C 340.00416,358.7587 337.37916,360.29386 335.45731,363.36414 C 333.53542,366.43448 332.57448,370.75869 332.57449,376.33679 C 332.57448,381.63368 333.4944,385.89344 335.33426,389.11609 C 337.17409,392.33875 339.81666,393.95007 343.26199,393.95007 C 346.70728,393.95007 349.35572,392.33875 351.20731,389.11609 C 353.05884,385.89344 353.98462,381.63368 353.98465,376.33679 L 353.98465,376.33679 z " style="font-size:72px;font-style:normal;font-variant:normal;font-weight:normal;font-stretch:normal;text-indent:0;text-align:start;text-decoration:none;line-height:125%;letter-spacing:normal;word-spacing:normal;text-transform:none;direction:ltr;block-progression:tb;writing-mode:lr-tb;text-anchor:start;color:black;fill:black;fill-opacity:1;fill-rule:nonzero;stroke:none;stroke-width:1px;stroke-linecap:butt;stroke-linejoin:miter;marker:none;marker-start:none;marker-mid:none;marker-end:none;stroke-miterlimit:4;stroke-dashoffset:0;stroke-opacity:1;visibility:visible;display:inline;overflow:visible;font-family:Georgia"/>
      <path id="text2236" d="M 442.95575,372.3114 C 444.50259,373.53017 445.7858,375.10048 446.80536,377.02234 C 447.82486,378.94422 448.33462,381.34657 448.33466,384.22937 C 448.33462,389.26843 446.61197,393.42858 443.16669,396.70984 C 439.72135,399.99108 435.35026,401.6317 430.05341,401.63171 C 425.95183,401.6317 422.48308,400.65905 419.64716,398.71375 C 416.81121,396.76842 415.39325,394.50671 415.39325,391.92859 C 415.39325,390.73327 415.68622,389.69031 416.27216,388.79968 C 416.85809,387.90906 417.76043,387.46375 418.97919,387.46375 C 420.38543,387.46375 421.45769,387.83289 422.19598,388.57117 C 422.93426,389.30945 423.3034,390.11218 423.30341,390.97937 C 423.3034,391.72937 423.17449,392.66687 422.91669,393.79187 C 422.65887,394.91686 422.45965,395.74889 422.31903,396.28796 C 422.50652,396.45202 422.81121,396.67467 423.23309,396.95593 C 423.65496,397.23717 424.15886,397.50671 424.74481,397.76453 C 425.35417,398.02233 426.09831,398.25085 426.97723,398.45007 C 427.85613,398.64928 428.88152,398.74889 430.05341,398.7489 C 431.55339,398.74889 432.97135,398.4442 434.30731,397.83484 C 435.64323,397.22546 436.76823,396.32311 437.68231,395.12781 C 438.6901,393.8153 439.44596,392.32116 439.94989,390.64539 C 440.45377,388.9696 440.70572,386.84265 440.70575,384.26453 C 440.70572,380.95985 439.7858,378.22352 437.94598,376.05554 C 436.10612,373.88759 433.6862,372.8036 430.68622,372.80359 C 428.8112,372.8036 427.05925,373.15517 425.43036,373.85828 C 423.80144,374.56142 422.34246,375.73329 421.05341,377.3739 L 418.69794,376.45984 L 421.68622,351.07703 L 446.85809,351.07703 L 446.85809,357.33484 L 424.53387,357.33484 L 422.70575,372.24109 C 423.76043,371.49111 425.1491,370.74697 426.87177,370.00867 C 428.59441,369.27041 430.48698,368.90127 432.5495,368.90125 C 434.26042,368.90127 436.0358,369.16494 437.87567,369.69226 C 439.71549,370.21962 441.40885,371.09267 442.95575,372.3114 L 442.95575,372.3114 z " style="font-size:72px;font-style:normal;font-variant:normal;font-weight:normal;font-stretch:normal;text-align:start;line-height:125%;writing-mode:lr-tb;text-anchor:start;fill:black;fill-opacity:1;stroke:none;stroke-width:1px;stroke-linecap:butt;stroke-linejoin:miter;stroke-opacity:1;font-family:Georgia"/>
      <path id="text2240" d="M 525.58426,395.7782 L 501.88895,395.7782 L 501.88895,393.2821 C 502.59207,393.23523 503.68777,393.13562 505.17606,392.98328 C 506.66433,392.83094 507.68972,392.67273 508.25223,392.50867 C 508.97878,392.2743 509.53542,391.89344 509.92215,391.36609 C 510.30886,390.83875 510.50221,390.04774 510.50223,388.99304 L 510.50223,364.31335 L 501.74832,364.31335 L 501.74832,361.36023 L 503.68192,361.36023 C 506.21316,361.36026 508.48073,360.89151 510.48465,359.95398 C 512.48854,359.01652 513.92409,358.0087 514.79129,356.93054 L 517.70926,356.93054 C 517.63893,358.45402 517.56861,360.23527 517.49832,362.27429 C 517.42799,364.31339 517.39283,366.14151 517.39285,367.75867 L 517.39285,388.60632 C 517.39283,389.42664 517.57447,390.15906 517.93777,390.80359 C 518.30103,391.44812 518.82252,391.92273 519.50223,392.22742 C 520.11158,392.48523 521.10767,392.71961 522.49051,392.93054 C 523.87329,393.14148 524.90454,393.25867 525.58426,393.2821 L 525.58426,395.7782 z " style="font-size:72px;font-style:normal;font-variant:normal;font-weight:normal;font-stretch:normal;text-align:start;line-height:125%;writing-mode:lr-tb;text-anchor:start;fill:black;fill-opacity:1;stroke:none;stroke-width:1px;stroke-linecap:butt;stroke-linejoin:miter;stroke-opacity:1;font-family:Georgia"/>
    </g>
  </g>
</svg>